<mxfile host="app.diagrams.net" agent="Mozilla/5.0 (Windows NT 10.0; Win64; x64) AppleWebKit/537.36 (KHTML, like Gecko) Chrome/129.0.0.0 Safari/537.36" version="24.7.17">
  <diagram id="C5RBs43oDa-KdzZeNtuy" name="Page-1">
    <mxGraphModel dx="1750" dy="928" grid="1" gridSize="10" guides="1" tooltips="1" connect="1" arrows="1" fold="1" page="1" pageScale="1" pageWidth="827" pageHeight="1169" math="0" shadow="0">
      <root>
        <mxCell id="WIyWlLk6GJQsqaUBKTNV-0" />
        <mxCell id="WIyWlLk6GJQsqaUBKTNV-1" parent="WIyWlLk6GJQsqaUBKTNV-0" />
        <mxCell id="ghgQpHEy8eyuKe0BL9Ko-0" style="edgeStyle=orthogonalEdgeStyle;rounded=0;orthogonalLoop=1;jettySize=auto;html=1;entryX=0.5;entryY=0;entryDx=0;entryDy=0;" edge="1" parent="WIyWlLk6GJQsqaUBKTNV-1" source="ghgQpHEy8eyuKe0BL9Ko-1" target="ghgQpHEy8eyuKe0BL9Ko-8">
          <mxGeometry relative="1" as="geometry" />
        </mxCell>
        <mxCell id="ghgQpHEy8eyuKe0BL9Ko-1" value="Начало" style="ellipse;whiteSpace=wrap;html=1;" vertex="1" parent="WIyWlLk6GJQsqaUBKTNV-1">
          <mxGeometry x="130" y="10" width="120" height="50" as="geometry" />
        </mxCell>
        <mxCell id="ghgQpHEy8eyuKe0BL9Ko-2" value="" style="edgeStyle=orthogonalEdgeStyle;rounded=0;orthogonalLoop=1;jettySize=auto;html=1;" edge="1" parent="WIyWlLk6GJQsqaUBKTNV-1" source="ghgQpHEy8eyuKe0BL9Ko-20" target="ghgQpHEy8eyuKe0BL9Ko-10">
          <mxGeometry relative="1" as="geometry" />
        </mxCell>
        <mxCell id="ghgQpHEy8eyuKe0BL9Ko-46" style="edgeStyle=orthogonalEdgeStyle;rounded=0;orthogonalLoop=1;jettySize=auto;html=1;entryX=0.5;entryY=0;entryDx=0;entryDy=0;" edge="1" parent="WIyWlLk6GJQsqaUBKTNV-1" source="ghgQpHEy8eyuKe0BL9Ko-3" target="ghgQpHEy8eyuKe0BL9Ko-44">
          <mxGeometry relative="1" as="geometry" />
        </mxCell>
        <mxCell id="ghgQpHEy8eyuKe0BL9Ko-3" value="Приведение системы к виду, удобному для итераций (x = Bx + c)" style="rounded=1;whiteSpace=wrap;html=1;" vertex="1" parent="WIyWlLk6GJQsqaUBKTNV-1">
          <mxGeometry x="290" y="140" width="130" height="60" as="geometry" />
        </mxCell>
        <mxCell id="ghgQpHEy8eyuKe0BL9Ko-4" value="Да" style="edgeStyle=orthogonalEdgeStyle;rounded=0;orthogonalLoop=1;jettySize=auto;html=1;exitX=1;exitY=0.5;exitDx=0;exitDy=0;entryX=0.5;entryY=0;entryDx=0;entryDy=0;fontFamily=Times New Roman;fontSize=14;" edge="1" parent="WIyWlLk6GJQsqaUBKTNV-1" source="ghgQpHEy8eyuKe0BL9Ko-8" target="ghgQpHEy8eyuKe0BL9Ko-3">
          <mxGeometry relative="1" as="geometry" />
        </mxCell>
        <mxCell id="ghgQpHEy8eyuKe0BL9Ko-5" style="edgeStyle=orthogonalEdgeStyle;rounded=0;orthogonalLoop=1;jettySize=auto;html=1;entryX=0.5;entryY=0;entryDx=0;entryDy=0;" edge="1" parent="WIyWlLk6GJQsqaUBKTNV-1" source="ghgQpHEy8eyuKe0BL9Ko-6" target="ghgQpHEy8eyuKe0BL9Ko-18">
          <mxGeometry relative="1" as="geometry">
            <Array as="points">
              <mxPoint x="50" y="960" />
              <mxPoint x="90" y="960" />
            </Array>
          </mxGeometry>
        </mxCell>
        <mxCell id="ghgQpHEy8eyuKe0BL9Ko-6" value="&lt;font style=&quot;font-size: 12px;&quot;&gt;Вызов ошибки&lt;/font&gt;" style="rounded=1;whiteSpace=wrap;html=1;" vertex="1" parent="WIyWlLk6GJQsqaUBKTNV-1">
          <mxGeometry x="10" y="220" width="90" height="40" as="geometry" />
        </mxCell>
        <mxCell id="ghgQpHEy8eyuKe0BL9Ko-7" value="Нет" style="edgeStyle=orthogonalEdgeStyle;rounded=0;orthogonalLoop=1;jettySize=auto;html=1;exitX=0;exitY=0.5;exitDx=0;exitDy=0;entryX=0.5;entryY=0;entryDx=0;entryDy=0;" edge="1" parent="WIyWlLk6GJQsqaUBKTNV-1" source="ghgQpHEy8eyuKe0BL9Ko-8" target="ghgQpHEy8eyuKe0BL9Ko-6">
          <mxGeometry relative="1" as="geometry" />
        </mxCell>
        <mxCell id="ghgQpHEy8eyuKe0BL9Ko-8" value="Применим ли метод" style="rhombus;whiteSpace=wrap;html=1;" vertex="1" parent="WIyWlLk6GJQsqaUBKTNV-1">
          <mxGeometry x="95" y="80" width="190" height="70" as="geometry" />
        </mxCell>
        <mxCell id="ghgQpHEy8eyuKe0BL9Ko-23" style="edgeStyle=orthogonalEdgeStyle;rounded=0;orthogonalLoop=1;jettySize=auto;html=1;entryX=0.5;entryY=0;entryDx=0;entryDy=0;" edge="1" parent="WIyWlLk6GJQsqaUBKTNV-1" source="ghgQpHEy8eyuKe0BL9Ko-10" target="ghgQpHEy8eyuKe0BL9Ko-21">
          <mxGeometry relative="1" as="geometry" />
        </mxCell>
        <mxCell id="ghgQpHEy8eyuKe0BL9Ko-10" value="&lt;div&gt;&lt;div&gt;sum1 := 0;&lt;/div&gt;&lt;div&gt;sum2 := 0;&lt;/div&gt;&lt;/div&gt;" style="rounded=1;whiteSpace=wrap;html=1;" vertex="1" parent="WIyWlLk6GJQsqaUBKTNV-1">
          <mxGeometry x="427.5" y="360" width="105" height="30" as="geometry" />
        </mxCell>
        <mxCell id="ghgQpHEy8eyuKe0BL9Ko-18" value="Конец" style="ellipse;whiteSpace=wrap;html=1;" vertex="1" parent="WIyWlLk6GJQsqaUBKTNV-1">
          <mxGeometry x="30" y="1010" width="120" height="50" as="geometry" />
        </mxCell>
        <mxCell id="ghgQpHEy8eyuKe0BL9Ko-61" style="edgeStyle=orthogonalEdgeStyle;rounded=0;orthogonalLoop=1;jettySize=auto;html=1;entryX=0.5;entryY=0;entryDx=0;entryDy=0;" edge="1" parent="WIyWlLk6GJQsqaUBKTNV-1" source="ghgQpHEy8eyuKe0BL9Ko-20" target="ghgQpHEy8eyuKe0BL9Ko-36">
          <mxGeometry relative="1" as="geometry">
            <Array as="points">
              <mxPoint x="590" y="320" />
              <mxPoint x="590" y="770" />
              <mxPoint x="495" y="770" />
            </Array>
          </mxGeometry>
        </mxCell>
        <mxCell id="ghgQpHEy8eyuKe0BL9Ko-20" value="for i to n" style="shape=hexagon;perimeter=hexagonPerimeter2;whiteSpace=wrap;html=1;fixedSize=1;" vertex="1" parent="WIyWlLk6GJQsqaUBKTNV-1">
          <mxGeometry x="420" y="300" width="120" height="40" as="geometry" />
        </mxCell>
        <mxCell id="ghgQpHEy8eyuKe0BL9Ko-24" style="edgeStyle=orthogonalEdgeStyle;rounded=0;orthogonalLoop=1;jettySize=auto;html=1;entryX=0.5;entryY=0;entryDx=0;entryDy=0;" edge="1" parent="WIyWlLk6GJQsqaUBKTNV-1" source="ghgQpHEy8eyuKe0BL9Ko-21" target="ghgQpHEy8eyuKe0BL9Ko-22">
          <mxGeometry relative="1" as="geometry" />
        </mxCell>
        <mxCell id="ghgQpHEy8eyuKe0BL9Ko-30" style="edgeStyle=orthogonalEdgeStyle;rounded=0;orthogonalLoop=1;jettySize=auto;html=1;entryX=0.5;entryY=0;entryDx=0;entryDy=0;" edge="1" parent="WIyWlLk6GJQsqaUBKTNV-1" source="ghgQpHEy8eyuKe0BL9Ko-21" target="ghgQpHEy8eyuKe0BL9Ko-26">
          <mxGeometry relative="1" as="geometry">
            <Array as="points">
              <mxPoint x="550" y="435" />
              <mxPoint x="550" y="540" />
              <mxPoint x="488" y="540" />
            </Array>
          </mxGeometry>
        </mxCell>
        <mxCell id="ghgQpHEy8eyuKe0BL9Ko-21" value="for j to i-1" style="shape=hexagon;perimeter=hexagonPerimeter2;whiteSpace=wrap;html=1;fixedSize=1;" vertex="1" parent="WIyWlLk6GJQsqaUBKTNV-1">
          <mxGeometry x="420" y="420" width="120" height="30" as="geometry" />
        </mxCell>
        <mxCell id="ghgQpHEy8eyuKe0BL9Ko-25" style="edgeStyle=orthogonalEdgeStyle;rounded=0;orthogonalLoop=1;jettySize=auto;html=1;entryX=0;entryY=0.5;entryDx=0;entryDy=0;" edge="1" parent="WIyWlLk6GJQsqaUBKTNV-1" source="ghgQpHEy8eyuKe0BL9Ko-22" target="ghgQpHEy8eyuKe0BL9Ko-21">
          <mxGeometry relative="1" as="geometry">
            <Array as="points">
              <mxPoint x="390" y="510" />
              <mxPoint x="390" y="435" />
            </Array>
          </mxGeometry>
        </mxCell>
        <mxCell id="ghgQpHEy8eyuKe0BL9Ko-22" value="sum1 := matrixA[i, j]*x_new[j] + sum1" style="rounded=1;whiteSpace=wrap;html=1;" vertex="1" parent="WIyWlLk6GJQsqaUBKTNV-1">
          <mxGeometry x="420" y="470" width="120" height="60" as="geometry" />
        </mxCell>
        <mxCell id="ghgQpHEy8eyuKe0BL9Ko-28" style="edgeStyle=orthogonalEdgeStyle;rounded=0;orthogonalLoop=1;jettySize=auto;html=1;" edge="1" parent="WIyWlLk6GJQsqaUBKTNV-1" source="ghgQpHEy8eyuKe0BL9Ko-26" target="ghgQpHEy8eyuKe0BL9Ko-27">
          <mxGeometry relative="1" as="geometry" />
        </mxCell>
        <mxCell id="ghgQpHEy8eyuKe0BL9Ko-60" style="edgeStyle=orthogonalEdgeStyle;rounded=0;orthogonalLoop=1;jettySize=auto;html=1;entryX=0;entryY=0.25;entryDx=0;entryDy=0;" edge="1" parent="WIyWlLk6GJQsqaUBKTNV-1" source="ghgQpHEy8eyuKe0BL9Ko-33" target="ghgQpHEy8eyuKe0BL9Ko-45">
          <mxGeometry relative="1" as="geometry">
            <Array as="points">
              <mxPoint x="380" y="730" />
              <mxPoint x="380" y="257" />
            </Array>
          </mxGeometry>
        </mxCell>
        <mxCell id="ghgQpHEy8eyuKe0BL9Ko-33" value="x_new[i] := evalf((b[i] - sum1 - sum2)/matrixA[i, i])" style="rounded=1;whiteSpace=wrap;html=1;" vertex="1" parent="WIyWlLk6GJQsqaUBKTNV-1">
          <mxGeometry x="427.5" y="690" width="120" height="60" as="geometry" />
        </mxCell>
        <mxCell id="ghgQpHEy8eyuKe0BL9Ko-40" style="edgeStyle=orthogonalEdgeStyle;rounded=0;orthogonalLoop=1;jettySize=auto;html=1;" edge="1" parent="WIyWlLk6GJQsqaUBKTNV-1" source="ghgQpHEy8eyuKe0BL9Ko-36" target="ghgQpHEy8eyuKe0BL9Ko-37">
          <mxGeometry relative="1" as="geometry" />
        </mxCell>
        <mxCell id="ghgQpHEy8eyuKe0BL9Ko-62" value="&lt;font style=&quot;font-size: 14px;&quot;&gt;Да&lt;/font&gt;" style="edgeStyle=orthogonalEdgeStyle;rounded=0;orthogonalLoop=1;jettySize=auto;html=1;entryX=0.5;entryY=0;entryDx=0;entryDy=0;" edge="1" parent="WIyWlLk6GJQsqaUBKTNV-1" source="ghgQpHEy8eyuKe0BL9Ko-37" target="ghgQpHEy8eyuKe0BL9Ko-38">
          <mxGeometry relative="1" as="geometry">
            <Array as="points">
              <mxPoint x="590" y="905" />
            </Array>
          </mxGeometry>
        </mxCell>
        <mxCell id="ghgQpHEy8eyuKe0BL9Ko-64" value="&lt;font style=&quot;font-size: 14px;&quot;&gt;Нет&lt;/font&gt;" style="edgeStyle=orthogonalEdgeStyle;rounded=0;orthogonalLoop=1;jettySize=auto;html=1;entryX=0;entryY=0.5;entryDx=0;entryDy=0;" edge="1" parent="WIyWlLk6GJQsqaUBKTNV-1" source="ghgQpHEy8eyuKe0BL9Ko-37" target="ghgQpHEy8eyuKe0BL9Ko-44">
          <mxGeometry relative="1" as="geometry">
            <Array as="points">
              <mxPoint x="350" y="905" />
              <mxPoint x="350" y="215" />
            </Array>
          </mxGeometry>
        </mxCell>
        <mxCell id="ghgQpHEy8eyuKe0BL9Ko-37" value="diff &amp;lt; epsilon" style="rhombus;whiteSpace=wrap;html=1;" vertex="1" parent="WIyWlLk6GJQsqaUBKTNV-1">
          <mxGeometry x="443.5" y="880" width="103" height="50" as="geometry" />
        </mxCell>
        <mxCell id="ghgQpHEy8eyuKe0BL9Ko-65" style="edgeStyle=orthogonalEdgeStyle;rounded=0;orthogonalLoop=1;jettySize=auto;html=1;entryX=0.5;entryY=0;entryDx=0;entryDy=0;" edge="1" parent="WIyWlLk6GJQsqaUBKTNV-1" source="ghgQpHEy8eyuKe0BL9Ko-38" target="ghgQpHEy8eyuKe0BL9Ko-18">
          <mxGeometry relative="1" as="geometry">
            <Array as="points">
              <mxPoint x="90" y="960" />
            </Array>
          </mxGeometry>
        </mxCell>
        <mxCell id="ghgQpHEy8eyuKe0BL9Ko-38" value="&lt;div&gt;print(&quot;Сошлось за&quot;, iter, &quot;итераций&quot;);&lt;/div&gt;&lt;div&gt;return x;&lt;/div&gt;" style="rounded=1;whiteSpace=wrap;html=1;" vertex="1" parent="WIyWlLk6GJQsqaUBKTNV-1">
          <mxGeometry x="530" y="940" width="120" height="60" as="geometry" />
        </mxCell>
        <mxCell id="ghgQpHEy8eyuKe0BL9Ko-47" style="edgeStyle=orthogonalEdgeStyle;rounded=0;orthogonalLoop=1;jettySize=auto;html=1;exitX=0.5;exitY=1;exitDx=0;exitDy=0;entryX=0.5;entryY=0;entryDx=0;entryDy=0;" edge="1" parent="WIyWlLk6GJQsqaUBKTNV-1" source="ghgQpHEy8eyuKe0BL9Ko-44" target="ghgQpHEy8eyuKe0BL9Ko-45">
          <mxGeometry relative="1" as="geometry" />
        </mxCell>
        <mxCell id="ghgQpHEy8eyuKe0BL9Ko-44" value="do" style="shape=hexagon;perimeter=hexagonPerimeter2;whiteSpace=wrap;html=1;fixedSize=1;" vertex="1" parent="WIyWlLk6GJQsqaUBKTNV-1">
          <mxGeometry x="440" y="200" width="80" height="30" as="geometry" />
        </mxCell>
        <mxCell id="ghgQpHEy8eyuKe0BL9Ko-48" style="edgeStyle=orthogonalEdgeStyle;rounded=0;orthogonalLoop=1;jettySize=auto;html=1;entryX=0.5;entryY=0;entryDx=0;entryDy=0;" edge="1" parent="WIyWlLk6GJQsqaUBKTNV-1" source="ghgQpHEy8eyuKe0BL9Ko-45" target="ghgQpHEy8eyuKe0BL9Ko-20">
          <mxGeometry relative="1" as="geometry" />
        </mxCell>
        <mxCell id="ghgQpHEy8eyuKe0BL9Ko-45" value="x_new := Vector(n)" style="rounded=1;whiteSpace=wrap;html=1;" vertex="1" parent="WIyWlLk6GJQsqaUBKTNV-1">
          <mxGeometry x="420" y="250" width="120" height="30" as="geometry" />
        </mxCell>
        <mxCell id="ghgQpHEy8eyuKe0BL9Ko-36" value="diff := evalf(Norm(x_new - x, infinity))&lt;div&gt;&lt;div&gt;x := x_new;&lt;/div&gt;&lt;div&gt;iter := iter + 1;&lt;/div&gt;&lt;/div&gt;" style="rounded=1;whiteSpace=wrap;html=1;" vertex="1" parent="WIyWlLk6GJQsqaUBKTNV-1">
          <mxGeometry x="427.5" y="790" width="135" height="60" as="geometry" />
        </mxCell>
        <mxCell id="ghgQpHEy8eyuKe0BL9Ko-59" style="edgeStyle=orthogonalEdgeStyle;rounded=0;orthogonalLoop=1;jettySize=auto;html=1;entryX=0.5;entryY=0;entryDx=0;entryDy=0;" edge="1" parent="WIyWlLk6GJQsqaUBKTNV-1" source="ghgQpHEy8eyuKe0BL9Ko-26" target="ghgQpHEy8eyuKe0BL9Ko-33">
          <mxGeometry relative="1" as="geometry">
            <Array as="points">
              <mxPoint x="570" y="585" />
              <mxPoint x="570" y="670" />
              <mxPoint x="488" y="670" />
            </Array>
          </mxGeometry>
        </mxCell>
        <mxCell id="ghgQpHEy8eyuKe0BL9Ko-26" value="&amp;nbsp;for j from i + 1 to n" style="shape=hexagon;perimeter=hexagonPerimeter2;whiteSpace=wrap;html=1;fixedSize=1;" vertex="1" parent="WIyWlLk6GJQsqaUBKTNV-1">
          <mxGeometry x="427.5" y="560" width="120" height="40" as="geometry" />
        </mxCell>
        <mxCell id="ghgQpHEy8eyuKe0BL9Ko-57" style="edgeStyle=orthogonalEdgeStyle;rounded=0;orthogonalLoop=1;jettySize=auto;html=1;entryX=0;entryY=0.5;entryDx=0;entryDy=0;" edge="1" parent="WIyWlLk6GJQsqaUBKTNV-1" source="ghgQpHEy8eyuKe0BL9Ko-27" target="ghgQpHEy8eyuKe0BL9Ko-26">
          <mxGeometry relative="1" as="geometry">
            <Array as="points">
              <mxPoint x="407" y="637" />
              <mxPoint x="407" y="585" />
            </Array>
          </mxGeometry>
        </mxCell>
        <mxCell id="ghgQpHEy8eyuKe0BL9Ko-27" value="sum2 := matrixA[i, j]*x[j] + sum2" style="rounded=1;whiteSpace=wrap;html=1;" vertex="1" parent="WIyWlLk6GJQsqaUBKTNV-1">
          <mxGeometry x="427.5" y="620" width="120" height="35" as="geometry" />
        </mxCell>
      </root>
    </mxGraphModel>
  </diagram>
</mxfile>
